<mxfile host="Electron" modified="2024-10-07T12:19:01.593Z" agent="Mozilla/5.0 (Windows NT 10.0; Win64; x64) AppleWebKit/537.36 (KHTML, like Gecko) draw.io/24.5.1 Chrome/124.0.6367.207 Electron/30.0.6 Safari/537.36" etag="cxTuyvyN5zTk1xPCBvc5" version="24.5.1" type="device">
  <diagram name="Page-1" id="2W5BjYlYr1wnpuhy5M0L">
    <mxGraphModel dx="1405" dy="1005" grid="1" gridSize="10" guides="1" tooltips="1" connect="1" arrows="1" fold="1" page="1" pageScale="1" pageWidth="850" pageHeight="1100" math="0" shadow="0">
      <root>
        <mxCell id="0" />
        <mxCell id="1" parent="0" />
        <mxCell id="Q2QK1eZNTCstP55D7dkz-1" value="Register Colonist" style="ellipse;whiteSpace=wrap;html=1;fillColor=none;strokeWidth=2;" parent="1" vertex="1">
          <mxGeometry x="308" y="40" width="235" height="60" as="geometry" />
        </mxCell>
        <mxCell id="Q2QK1eZNTCstP55D7dkz-2" value="Update Colonists Details" style="ellipse;whiteSpace=wrap;html=1;fillColor=none;strokeWidth=2;" parent="1" vertex="1">
          <mxGeometry x="308" y="130" width="235" height="60" as="geometry" />
        </mxCell>
        <mxCell id="Q2QK1eZNTCstP55D7dkz-3" value="Assign Job to Clonists" style="ellipse;whiteSpace=wrap;html=1;fillColor=none;strokeWidth=2;" parent="1" vertex="1">
          <mxGeometry x="308" y="220" width="235" height="60" as="geometry" />
        </mxCell>
        <mxCell id="Q2QK1eZNTCstP55D7dkz-4" value="Shedule Trips" style="ellipse;whiteSpace=wrap;html=1;fillColor=none;strokeWidth=2;" parent="1" vertex="1">
          <mxGeometry x="308" y="310" width="235" height="60" as="geometry" />
        </mxCell>
        <mxCell id="Q2QK1eZNTCstP55D7dkz-5" value="Track Dependents" style="ellipse;whiteSpace=wrap;html=1;fillColor=none;strokeWidth=2;" parent="1" vertex="1">
          <mxGeometry x="308" y="470" width="235" height="60" as="geometry" />
        </mxCell>
        <mxCell id="Q2QK1eZNTCstP55D7dkz-6" value="Viwe Trip Infromation" style="ellipse;whiteSpace=wrap;html=1;fillColor=none;strokeWidth=2;" parent="1" vertex="1">
          <mxGeometry x="308" y="550" width="235" height="60" as="geometry" />
        </mxCell>
        <mxCell id="Q2QK1eZNTCstP55D7dkz-7" value="Genarate Reports" style="ellipse;whiteSpace=wrap;html=1;fillColor=none;strokeWidth=2;" parent="1" vertex="1">
          <mxGeometry x="308" y="640" width="235" height="60" as="geometry" />
        </mxCell>
        <mxCell id="Q2QK1eZNTCstP55D7dkz-8" value="Authenticate User" style="ellipse;whiteSpace=wrap;html=1;fillColor=none;strokeWidth=2;" parent="1" vertex="1">
          <mxGeometry x="308" y="730" width="235" height="60" as="geometry" />
        </mxCell>
        <mxCell id="Q2QK1eZNTCstP55D7dkz-9" value="Maintain System Security" style="ellipse;whiteSpace=wrap;html=1;fillColor=none;strokeWidth=2;" parent="1" vertex="1">
          <mxGeometry x="308" y="820" width="235" height="60" as="geometry" />
        </mxCell>
        <mxCell id="Q2QK1eZNTCstP55D7dkz-10" value="Manage Personal Details" style="ellipse;whiteSpace=wrap;html=1;fillColor=none;strokeWidth=2;" parent="1" vertex="1">
          <mxGeometry x="308" y="910" width="235" height="60" as="geometry" />
        </mxCell>
        <mxCell id="Q2QK1eZNTCstP55D7dkz-11" value="Check Job Assignments" style="ellipse;whiteSpace=wrap;html=1;fillColor=none;strokeWidth=2;" parent="1" vertex="1">
          <mxGeometry x="308" y="390" width="235" height="60" as="geometry" />
        </mxCell>
        <mxCell id="Q2QK1eZNTCstP55D7dkz-13" value="Admin" style="shape=umlActor;verticalLabelPosition=bottom;verticalAlign=top;html=1;outlineConnect=0;" parent="1" vertex="1">
          <mxGeometry x="50" y="140" width="30" height="60" as="geometry" />
        </mxCell>
        <mxCell id="Q2QK1eZNTCstP55D7dkz-15" value="" style="endArrow=none;html=1;rounded=0;exitX=1;exitY=0.3333333333333333;exitDx=0;exitDy=0;exitPerimeter=0;entryX=-0.007;entryY=0.558;entryDx=0;entryDy=0;entryPerimeter=0;" parent="1" source="Q2QK1eZNTCstP55D7dkz-13" target="Q2QK1eZNTCstP55D7dkz-1" edge="1">
          <mxGeometry width="50" height="50" relative="1" as="geometry">
            <mxPoint x="170" y="160" as="sourcePoint" />
            <mxPoint x="220" y="110" as="targetPoint" />
          </mxGeometry>
        </mxCell>
        <mxCell id="Q2QK1eZNTCstP55D7dkz-16" value="" style="endArrow=none;html=1;rounded=0;exitX=1;exitY=0.3333333333333333;exitDx=0;exitDy=0;exitPerimeter=0;entryX=0;entryY=0.5;entryDx=0;entryDy=0;" parent="1" source="Q2QK1eZNTCstP55D7dkz-13" target="Q2QK1eZNTCstP55D7dkz-2" edge="1">
          <mxGeometry width="50" height="50" relative="1" as="geometry">
            <mxPoint x="90" y="170" as="sourcePoint" />
            <mxPoint x="316" y="83" as="targetPoint" />
          </mxGeometry>
        </mxCell>
        <mxCell id="Q2QK1eZNTCstP55D7dkz-17" value="" style="endArrow=none;html=1;rounded=0;exitX=1;exitY=0.3333333333333333;exitDx=0;exitDy=0;exitPerimeter=0;entryX=0;entryY=0.5;entryDx=0;entryDy=0;" parent="1" source="Q2QK1eZNTCstP55D7dkz-13" target="Q2QK1eZNTCstP55D7dkz-3" edge="1">
          <mxGeometry width="50" height="50" relative="1" as="geometry">
            <mxPoint x="90" y="170" as="sourcePoint" />
            <mxPoint x="318" y="170" as="targetPoint" />
          </mxGeometry>
        </mxCell>
        <mxCell id="Q2QK1eZNTCstP55D7dkz-18" value="" style="endArrow=none;html=1;rounded=0;entryX=0;entryY=0.5;entryDx=0;entryDy=0;" parent="1" target="Q2QK1eZNTCstP55D7dkz-4" edge="1">
          <mxGeometry width="50" height="50" relative="1" as="geometry">
            <mxPoint x="80" y="160" as="sourcePoint" />
            <mxPoint x="318" y="260" as="targetPoint" />
          </mxGeometry>
        </mxCell>
        <mxCell id="Q2QK1eZNTCstP55D7dkz-19" value="" style="endArrow=none;html=1;rounded=0;entryX=0;entryY=0.5;entryDx=0;entryDy=0;exitX=1;exitY=0.3333333333333333;exitDx=0;exitDy=0;exitPerimeter=0;" parent="1" source="Q2QK1eZNTCstP55D7dkz-13" target="Q2QK1eZNTCstP55D7dkz-11" edge="1">
          <mxGeometry width="50" height="50" relative="1" as="geometry">
            <mxPoint x="90" y="190" as="sourcePoint" />
            <mxPoint x="318" y="350" as="targetPoint" />
          </mxGeometry>
        </mxCell>
        <mxCell id="Q2QK1eZNTCstP55D7dkz-20" value="" style="endArrow=none;html=1;rounded=0;entryX=0;entryY=0.5;entryDx=0;entryDy=0;exitX=1;exitY=0.3333333333333333;exitDx=0;exitDy=0;exitPerimeter=0;" parent="1" source="Q2QK1eZNTCstP55D7dkz-13" target="Q2QK1eZNTCstP55D7dkz-5" edge="1">
          <mxGeometry width="50" height="50" relative="1" as="geometry">
            <mxPoint x="90" y="170" as="sourcePoint" />
            <mxPoint x="318" y="430" as="targetPoint" />
          </mxGeometry>
        </mxCell>
        <mxCell id="Q2QK1eZNTCstP55D7dkz-21" value="" style="endArrow=none;html=1;rounded=0;entryX=0;entryY=0.5;entryDx=0;entryDy=0;exitX=1;exitY=0.3333333333333333;exitDx=0;exitDy=0;exitPerimeter=0;" parent="1" source="Q2QK1eZNTCstP55D7dkz-13" target="Q2QK1eZNTCstP55D7dkz-6" edge="1">
          <mxGeometry width="50" height="50" relative="1" as="geometry">
            <mxPoint x="90" y="170" as="sourcePoint" />
            <mxPoint x="318" y="510" as="targetPoint" />
          </mxGeometry>
        </mxCell>
        <mxCell id="Q2QK1eZNTCstP55D7dkz-22" value="" style="endArrow=none;html=1;rounded=0;entryX=0;entryY=0.5;entryDx=0;entryDy=0;exitX=1;exitY=0.3333333333333333;exitDx=0;exitDy=0;exitPerimeter=0;" parent="1" source="Q2QK1eZNTCstP55D7dkz-13" target="Q2QK1eZNTCstP55D7dkz-7" edge="1">
          <mxGeometry width="50" height="50" relative="1" as="geometry">
            <mxPoint x="90" y="170" as="sourcePoint" />
            <mxPoint x="318" y="590" as="targetPoint" />
          </mxGeometry>
        </mxCell>
        <mxCell id="Q2QK1eZNTCstP55D7dkz-23" value="" style="endArrow=none;html=1;rounded=0;entryX=0;entryY=0.5;entryDx=0;entryDy=0;exitX=1;exitY=0.3333333333333333;exitDx=0;exitDy=0;exitPerimeter=0;" parent="1" source="Q2QK1eZNTCstP55D7dkz-13" target="Q2QK1eZNTCstP55D7dkz-8" edge="1">
          <mxGeometry width="50" height="50" relative="1" as="geometry">
            <mxPoint x="90" y="170" as="sourcePoint" />
            <mxPoint x="318" y="680" as="targetPoint" />
          </mxGeometry>
        </mxCell>
        <mxCell id="Q2QK1eZNTCstP55D7dkz-24" value="" style="endArrow=none;html=1;rounded=0;entryX=0;entryY=0.5;entryDx=0;entryDy=0;exitX=1;exitY=0.3333333333333333;exitDx=0;exitDy=0;exitPerimeter=0;" parent="1" source="Q2QK1eZNTCstP55D7dkz-13" target="Q2QK1eZNTCstP55D7dkz-9" edge="1">
          <mxGeometry width="50" height="50" relative="1" as="geometry">
            <mxPoint x="90" y="170" as="sourcePoint" />
            <mxPoint x="318" y="770" as="targetPoint" />
          </mxGeometry>
        </mxCell>
        <mxCell id="Q2QK1eZNTCstP55D7dkz-25" value="" style="endArrow=none;html=1;rounded=0;entryX=0;entryY=0.5;entryDx=0;entryDy=0;exitX=1;exitY=0.3333333333333333;exitDx=0;exitDy=0;exitPerimeter=0;" parent="1" source="Q2QK1eZNTCstP55D7dkz-13" target="Q2QK1eZNTCstP55D7dkz-10" edge="1">
          <mxGeometry width="50" height="50" relative="1" as="geometry">
            <mxPoint x="90" y="170" as="sourcePoint" />
            <mxPoint x="318" y="860" as="targetPoint" />
          </mxGeometry>
        </mxCell>
        <mxCell id="Q2QK1eZNTCstP55D7dkz-26" value="Colonists" style="shape=umlActor;verticalLabelPosition=bottom;verticalAlign=top;html=1;outlineConnect=0;" parent="1" vertex="1">
          <mxGeometry x="730" y="350" width="30" height="60" as="geometry" />
        </mxCell>
        <mxCell id="Q2QK1eZNTCstP55D7dkz-27" value="" style="endArrow=none;html=1;rounded=0;exitX=1;exitY=0.3333333333333333;exitDx=0;exitDy=0;exitPerimeter=0;entryX=1;entryY=0.5;entryDx=0;entryDy=0;" parent="1" source="Q2QK1eZNTCstP55D7dkz-26" target="Q2QK1eZNTCstP55D7dkz-2" edge="1">
          <mxGeometry width="50" height="50" relative="1" as="geometry">
            <mxPoint x="80" y="360" as="sourcePoint" />
            <mxPoint x="306" y="273" as="targetPoint" />
          </mxGeometry>
        </mxCell>
        <mxCell id="Q2QK1eZNTCstP55D7dkz-28" value="" style="endArrow=none;html=1;rounded=0;exitX=1;exitY=0.3333333333333333;exitDx=0;exitDy=0;exitPerimeter=0;entryX=1;entryY=0.5;entryDx=0;entryDy=0;" parent="1" source="Q2QK1eZNTCstP55D7dkz-26" target="Q2QK1eZNTCstP55D7dkz-5" edge="1">
          <mxGeometry width="50" height="50" relative="1" as="geometry">
            <mxPoint x="90" y="390" as="sourcePoint" />
            <mxPoint x="318" y="170" as="targetPoint" />
          </mxGeometry>
        </mxCell>
        <mxCell id="Q2QK1eZNTCstP55D7dkz-29" value="" style="endArrow=none;html=1;rounded=0;exitX=1;exitY=0.3333333333333333;exitDx=0;exitDy=0;exitPerimeter=0;entryX=1;entryY=0.5;entryDx=0;entryDy=0;" parent="1" source="Q2QK1eZNTCstP55D7dkz-26" target="Q2QK1eZNTCstP55D7dkz-6" edge="1">
          <mxGeometry width="50" height="50" relative="1" as="geometry">
            <mxPoint x="90" y="390" as="sourcePoint" />
            <mxPoint x="318" y="510" as="targetPoint" />
          </mxGeometry>
        </mxCell>
        <mxCell id="Q2QK1eZNTCstP55D7dkz-30" value="" style="endArrow=none;html=1;rounded=0;exitX=1;exitY=0.3333333333333333;exitDx=0;exitDy=0;exitPerimeter=0;entryX=1;entryY=0.5;entryDx=0;entryDy=0;" parent="1" source="Q2QK1eZNTCstP55D7dkz-26" target="Q2QK1eZNTCstP55D7dkz-11" edge="1">
          <mxGeometry width="50" height="50" relative="1" as="geometry">
            <mxPoint x="90" y="390" as="sourcePoint" />
            <mxPoint x="318" y="590" as="targetPoint" />
          </mxGeometry>
        </mxCell>
        <mxCell id="Q2QK1eZNTCstP55D7dkz-31" value="Astronomer (Pilot)" style="shape=umlActor;verticalLabelPosition=bottom;verticalAlign=top;html=1;outlineConnect=0;" parent="1" vertex="1">
          <mxGeometry x="80" y="670" width="30" height="60" as="geometry" />
        </mxCell>
        <mxCell id="Q2QK1eZNTCstP55D7dkz-32" value="" style="endArrow=none;html=1;rounded=0;exitX=1;exitY=0.3333333333333333;exitDx=0;exitDy=0;exitPerimeter=0;entryX=0;entryY=0.5;entryDx=0;entryDy=0;" parent="1" source="Q2QK1eZNTCstP55D7dkz-31" target="Q2QK1eZNTCstP55D7dkz-6" edge="1">
          <mxGeometry width="50" height="50" relative="1" as="geometry">
            <mxPoint x="90" y="390" as="sourcePoint" />
            <mxPoint x="318" y="510" as="targetPoint" />
          </mxGeometry>
        </mxCell>
        <mxCell id="VuomBmPXfPUqnbp9Xh79-2" value="" style="swimlane;startSize=0;" vertex="1" parent="1">
          <mxGeometry x="280" y="30" width="300" height="970" as="geometry" />
        </mxCell>
      </root>
    </mxGraphModel>
  </diagram>
</mxfile>
